<?xml version="1.0" encoding="utf-8"?>
<!-- Generator: Adobe Illustrator 21.0.0, SVG Export Plug-In . SVG Version: 6.00 Build 0)  -->
<svg version="1.1" xmlns="http://www.w3.org/2000/svg" xmlns:xlink="http://www.w3.org/1999/xlink" x="0px" y="0px"
	 viewBox="0 0 800 200" style="enable-background:new 0 0 800 200;" xml:space="preserve">
<style type="text/css">
	.st0{fill:none;stroke:#FF0000;stroke-miterlimit:10;}
	.st1{fill:#FFFFFF;}
	.st2{fill:#110F3B;}
</style>
<g id="Layer_1">
	<path class="st0" d="M267.5,69.5"/>
	<g>
		<path class="st1" d="M277.8,70.8l8.4,32.5c1.8,7.1,3.6,13.7,4.7,20.3h0.4c1.5-6.5,3.6-13.3,5.7-20.2l10.4-32.6h9.8l9.9,31.9
			c2.4,7.7,4.2,14.4,5.7,20.8h0.4c1.1-6.5,2.8-13.2,4.9-20.7l9.1-32.1h11.5l-20.6,63.9h-10.6l-9.8-30.5c-2.2-7.1-4.1-13.5-5.7-21
			h-0.3c-1.6,7.7-3.6,14.2-5.8,21.1l-10.3,30.3h-10.6l-19.3-63.9H277.8z"/>
		<path class="st1" d="M383.2,52.9c0.1,4-2.8,7.1-7.4,7.1c-4.1,0-7-3.2-7-7.1c0-4.1,3-7.3,7.3-7.3C380.4,45.6,383.2,48.8,383.2,52.9
			z M370.3,134.7V70.8h11.6v63.9H370.3z"/>
		<path class="st1" d="M412.6,100.1h0.3c1.6-2.2,3.8-5,5.7-7.3l18.7-22h14l-24.7,26.3l28.1,37.6h-14.1l-22-30.6l-5.9,6.6v24h-11.5
			V41h11.5V100.1z"/>
		<path class="st1" d="M478.2,52.9c0.1,4-2.8,7.1-7.4,7.1c-4.1,0-7-3.2-7-7.1c0-4.1,3-7.3,7.3-7.3C475.4,45.6,478.2,48.8,478.2,52.9
			z M465.3,134.7V70.8h11.6v63.9H465.3z"/>
		<path class="st1" d="M510.1,52.5v18.3h16.6v8.8h-16.6v34.4c0,7.9,2.2,12.4,8.7,12.4c3,0,5.3-0.4,6.7-0.8l0.5,8.7
			c-2.2,0.9-5.8,1.6-10.3,1.6c-5.4,0-9.8-1.7-12.5-4.9c-3.3-3.4-4.5-9.1-4.5-16.6V79.7h-9.9v-8.8h9.9V55.5L510.1,52.5z"/>
		<path class="st1" d="M545.5,104.9c0.3,15.7,10.3,22.2,21.9,22.2c8.3,0,13.3-1.5,17.7-3.3l2,8.3c-4.1,1.8-11.1,4-21.2,4
			c-19.7,0-31.4-12.9-31.4-32.2s11.3-34.4,29.9-34.4c20.8,0,26.4,18.3,26.4,30.1c0,2.4-0.3,4.2-0.4,5.4H545.5z M579.5,96.5
			c0.1-7.4-3-18.9-16.1-18.9c-11.7,0-16.9,10.8-17.8,18.9H579.5z"/>
		<path class="st1" d="M605.1,90.7c0-7.5-0.1-14-0.5-19.9h10.2l0.4,12.5h0.5c2.9-8.6,9.9-14,17.7-14c1.3,0,2.2,0.1,3.3,0.4v11
			c-1.2-0.3-2.4-0.4-4-0.4c-8.2,0-14,6.2-15.6,14.9c-0.3,1.6-0.5,3.4-0.5,5.4v34h-11.5V90.7z"/>
		<path class="st1" d="M648.8,88.1c0-6.6-0.1-12-0.5-17.3h10.2l0.5,10.3h0.4c3.6-6.1,9.5-11.7,20.1-11.7c8.7,0,15.3,5.3,18.1,12.8
			h0.3c2-3.6,4.5-6.3,7.1-8.3c3.8-2.9,8-4.5,14.1-4.5c8.4,0,21,5.5,21,27.7v37.6h-11.3V98.5c0-12.3-4.5-19.7-13.9-19.7
			c-6.6,0-11.7,4.9-13.7,10.6c-0.5,1.6-0.9,3.7-0.9,5.8v39.5h-11.3V96.4c0-10.2-4.5-17.5-13.3-17.5c-7.3,0-12.5,5.8-14.4,11.6
			c-0.7,1.7-0.9,3.7-0.9,5.7v38.5h-11.3V88.1z"/>
		<path class="st1" d="M756,127.8c0-4.9,3.3-8.3,7.9-8.3c4.6,0,7.8,3.4,7.8,8.3c0,4.7-3,8.3-7.9,8.3
			C759.2,136.1,756,132.6,756,127.8z"/>
	</g>
</g>
<g id="Layer_2">
	<g id="XMLID_1_">
		<g>
			<path class="st2" d="M123.9,7C174.7,7,216,48.3,216,99.1s-41.2,92.1-92.1,92.1S31.8,150,31.8,99.1S73,7,123.9,7z M164.5,153.1
				l28.7-90.3h-12.9l-5.8-1.5l-0.4,1.5h-2.8l-23.9,90.3H164.5z M148.3,135.2c3.3-1.5,4.7-3.7,3.7-6.1c-0.3-0.8-0.8-1.5-1.6-2
				l1.6-6.1l-19.6-51.1l-6.7,18.2c-1.7,1.4-2.2,3-1.7,4.6l-1.1,2.9l20.5,57.3L148.3,135.2z M102.3,148.1l28.5-83.8l-11.1-0.1
				c0.1-0.4,0.3-0.8,0.3-0.9c0.2-0.6-0.4-0.8-0.4-0.8s-2.1-0.7-2.7-0.9c-0.6-0.2-0.9,0.4-0.9,0.4s-0.5,1.4-0.8,2.3l-1.5,0
				l-20.2,50.4l0.5,2c-0.2,0.6-0.7,2-0.8,2.5c-0.2,0.6,0.4,0.8,0.4,0.8s0.7,0.2,1.4,0.5L102.3,148.1z M100.6,151.6L76.6,62.5h-7.1
				c0.7-0.2,1.3-0.3,1.3-0.3s0.7-0.2,0.5-0.8c-0.2-0.6-0.7-2.8-0.7-2.8s-0.2-0.7-0.8-0.5c-0.6,0.2-2.8,0.7-2.8,0.7s-0.7,0.2-0.5,0.8
				c0.2,0.6,0.7,2.8,0.7,2.8s0,0,0,0.1h-6c-0.2-0.9-0.5-2-0.5-2s-0.2-0.7-0.8-0.5s-2.8,0.7-2.8,0.7s-0.7,0.2-0.5,0.8
				c0.1,0.2,0.2,0.6,0.3,1h-2l27.6,89.2H100.6z"/>
			<polygon class="st2" points="187.6,64.7 187.2,66.4 175.8,63.5 175.7,63.5 176.4,66.1 175,66.1 174.2,62.9 174.2,62.8 
				180.3,62.8 			"/>
			<path class="st2" d="M179.1,70.2c4.5,1.1,6.5,3.4,5.8,6.3c-0.7,2.6-3.5,3.7-7.8,2.6c-4.4-1.1-6.3-3.6-5.7-6.3
				C172.1,70.1,174.9,69.1,179.1,70.2z M183.5,76.1c0.5-1.8-1.4-3.2-4.8-4.1c-3.2-0.8-5.6-0.5-6,1.3c-0.4,1.6,1.2,3.2,4.8,4.1
				C180.9,78.2,183.1,77.7,183.5,76.1z"/>
			<polygon class="st2" points="182.5,85.5 182.1,87.2 170.6,84.3 170.6,84.3 171.2,86.9 169.8,86.9 169,83.6 169.4,82.1 			"/>
			<polygon class="st2" points="180.3,62.8 174.2,62.8 174.5,61.4 			"/>
			<path class="st2" d="M174.1,90.8c4.5,1.1,6.5,3.4,5.8,6.3c-0.7,2.6-3.5,3.7-7.8,2.6c-4.4-1.1-6.3-3.6-5.7-6.3
				C167,90.7,169.9,89.7,174.1,90.8z M178.5,96.7c0.5-1.8-1.4-3.2-4.8-4.1c-3.2-0.8-5.6-0.5-6,1.3c-0.4,1.6,1.2,3.2,4.8,4.1
				C175.9,98.8,178.1,98.3,178.5,96.7z"/>
			<polygon class="st2" points="176.5,106.5 176,108.2 164.6,105.3 164.6,105.3 165.2,107.9 163.8,107.9 163,104.7 163.3,103.2 			
				"/>
			<path class="st2" d="M167.9,112c4.5,1.1,6.5,3.4,5.8,6.3c-0.7,2.6-3.5,3.7-7.8,2.6c-4.4-1.1-6.3-3.6-5.7-6.3
				C160.9,111.9,163.8,110.9,167.9,112z M172.3,117.9c0.5-1.8-1.4-3.2-4.8-4.1c-3.2-0.8-5.6-0.5-6,1.3c-0.4,1.6,1.2,3.2,4.8,4.1
				C169.7,120,171.9,119.5,172.3,117.9z"/>
			<polygon class="st2" points="171.3,127.3 170.9,129 159.4,126 159.4,126.1 160,128.7 158.6,128.7 157.8,125.4 158.2,123.9 			"/>
			<path class="st2" d="M162.8,132.7c4.5,1.1,6.5,3.4,5.8,6.3c-0.7,2.6-3.5,3.7-7.8,2.6c-4.4-1.1-6.3-3.6-5.7-6.3
				C155.7,132.6,158.6,131.7,162.8,132.7z M167.2,138.6c0.5-1.8-1.4-3.2-4.8-4.1c-3.2-0.8-5.6-0.5-6,1.3c-0.4,1.6,1.2,3.2,4.8,4.1
				C164.6,140.8,166.8,140.2,167.2,138.6z"/>
			<polygon class="st2" points="164.7,146.7 164.3,148.4 152.8,145.5 152.8,145.5 153.4,148.1 152,148.1 151.2,144.8 151.6,143.3 
							"/>
			<path class="st2" d="M152.1,129.1c0.9,2.4-0.5,4.6-3.7,6.1l0.7-2.4c1.5-1,2.2-2.1,1.7-3.3c-0.1-0.3-0.3-0.6-0.6-0.8l0.4-1.5
				C151.2,127.6,151.8,128.2,152.1,129.1z"/>
			<path class="st2" d="M150.5,127.1l-0.4,1.5c-1-0.8-3-0.8-5.6,0.2c-3.3,1.2-4.8,3-4.2,4.5c0.7,1.8,3,1.8,6.3,0.6
				c1-0.4,1.8-0.8,2.5-1.2l-0.7,2.4c-0.3,0.2-0.7,0.3-1.1,0.5c-4.3,1.6-7.3,0.9-8.3-1.9c-0.9-2.5,0.8-5,4.9-6.6
				C146.7,126.1,149,126.1,150.5,127.1z"/>
			<polygon class="st2" points="148.4,117.9 149,119.4 136.3,124.1 135.7,122.5 146.7,118.3 146.7,118.3 144.7,116.5 145.9,115.7 
							"/>
			<path class="st2" d="M145,108.2c1,2.7-0.8,5.1-4.8,6.6c-4.3,1.6-7.3,0.9-8.3-1.9c-0.9-2.5,0.8-5,4.9-6.6
				C141,104.6,144,105.6,145,108.2z M139.4,113.1c3.1-1.2,4.9-2.7,4.2-4.5c-0.6-1.5-2.8-1.9-6.3-0.6c-3.3,1.2-4.8,3-4.2,4.5
				C133.8,114.2,136.2,114.3,139.4,113.1z"/>
			<polygon class="st2" points="140.8,98 141.3,99.4 128.7,104.2 128,102.5 139.1,98.4 139.1,98.3 137.1,96.6 138.2,95.7 			"/>
			<path class="st2" d="M137.3,88.2c1,2.7-0.8,5.1-4.8,6.6c-4.3,1.6-7.3,0.9-8.3-1.9c0-0.1,0-0.1-0.1-0.2l1.7-4.6
				c0.8-0.7,1.9-1.3,3.3-1.8C133.3,84.7,136.4,85.6,137.3,88.2z M131.8,93.1c3.1-1.2,4.9-2.7,4.2-4.5c-0.6-1.5-2.8-1.9-6.3-0.6
				c-3.3,1.2-4.8,3-4.2,4.5C126.2,94.3,128.6,94.3,131.8,93.1z"/>
			<path class="st2" d="M128.8,65.2c0,0,0.6,0.2,0.5,0.8c-0.2,0.6-0.8,2.7-0.8,2.7s-0.2,0.6-0.8,0.4c-0.6-0.2-2.7-0.8-2.7-0.8
				s-0.7-0.2-0.5-0.8c0.2-0.6,0.8-2.7,0.8-2.7s0.2-0.6,0.8-0.5C126.7,64.6,128.8,65.2,128.8,65.2z"/>
			<path class="st2" d="M127.1,70.1c0,0,0.6,0.2,0.5,0.8c-0.2,0.6-0.8,2.7-0.8,2.7s-0.2,0.6-0.8,0.4c-0.6-0.2-2.7-0.8-2.7-0.8
				s-0.7-0.2-0.5-0.8c0.2-0.6,0.8-2.7,0.8-2.7s0.2-0.6,0.8-0.5C125,69.6,127.1,70.1,127.1,70.1z"/>
			<path class="st2" d="M125.4,75.3c0,0,0.6,0.2,0.5,0.8c-0.2,0.6-0.8,2.7-0.8,2.7s-0.2,0.6-0.8,0.4c-0.6-0.2-2.7-0.8-2.7-0.8
				s-0.7-0.2-0.5-0.8c0.2-0.6,0.8-2.7,0.8-2.7s0.2-0.6,0.8-0.5C123.3,74.7,125.4,75.3,125.4,75.3z"/>
			<path class="st2" d="M123.6,80.4c0,0,0.6,0.2,0.5,0.8c-0.2,0.6-0.8,2.7-0.8,2.7s-0.2,0.6-0.8,0.4c-0.6-0.2-2.7-0.8-2.7-0.8
				s-0.7-0.2-0.5-0.8c0.2-0.6,0.8-2.7,0.8-2.7s0.2-0.6,0.8-0.5C121.5,79.8,123.6,80.4,123.6,80.4z"/>
			<path class="st2" d="M121.9,85.4c0,0,0.6,0.2,0.5,0.8c-0.2,0.6-0.8,2.7-0.8,2.7s-0.2,0.6-0.8,0.4c-0.6-0.2-2.7-0.8-2.7-0.8
				s-0.7-0.2-0.5-0.8c0.2-0.6,0.8-2.7,0.8-2.7s0.2-0.6,0.8-0.5C119.7,84.8,121.9,85.4,121.9,85.4z"/>
			<path class="st2" d="M120.1,90.5c0,0,0.6,0.2,0.5,0.8c-0.2,0.6-0.8,2.7-0.8,2.7s-0.2,0.6-0.8,0.4c-0.6-0.2-2.7-0.8-2.7-0.8
				s-0.7-0.2-0.5-0.8c0.2-0.6,0.8-2.7,0.8-2.7s0.2-0.6,0.8-0.5C118,89.9,120.1,90.5,120.1,90.5z"/>
			<path class="st2" d="M119.7,62.5c0,0,0.6,0.2,0.4,0.8c-0.1,0.2-0.2,0.6-0.3,0.9l-4.4,0c0.3-0.8,0.8-2.3,0.8-2.3s0.2-0.6,0.9-0.4
				C117.6,61.8,119.7,62.5,119.7,62.5z"/>
			<path class="st2" d="M115.3,64.2l4.4,0c-0.3,0.8-0.6,1.8-0.6,1.8s-0.2,0.6-0.8,0.4c-0.6-0.2-2.7-0.9-2.7-0.9s-0.7-0.2-0.4-0.8
				C115.2,64.6,115.3,64.4,115.3,64.2z"/>
			<path class="st2" d="M118.4,95.5c0,0,0.6,0.2,0.5,0.8c-0.2,0.6-0.8,2.7-0.8,2.7s-0.2,0.6-0.8,0.4c-0.6-0.2-2.7-0.8-2.7-0.8
				s-0.7-0.2-0.5-0.8c0.2-0.6,0.8-2.7,0.8-2.7s0.2-0.6,0.8-0.5C116.3,94.9,118.4,95.5,118.4,95.5z"/>
			<path class="st2" d="M117.7,67.3c0,0,0.6,0.2,0.4,0.8c-0.2,0.6-0.9,2.7-0.9,2.7s-0.2,0.6-0.8,0.4c-0.6-0.2-2.7-0.9-2.7-0.9
				s-0.7-0.2-0.4-0.8c0.2-0.6,0.9-2.7,0.9-2.7s0.2-0.6,0.9-0.4C115.6,66.6,117.7,67.3,117.7,67.3z"/>
			<path class="st2" d="M116.6,100.4c0,0,0.6,0.2,0.5,0.8c-0.2,0.6-0.8,2.7-0.8,2.7s-0.2,0.6-0.8,0.4c-0.6-0.2-2.7-0.8-2.7-0.8
				s-0.7-0.2-0.5-0.8c0.2-0.6,0.8-2.7,0.8-2.7s0.2-0.6,0.8-0.5C114.5,99.8,116.6,100.4,116.6,100.4z"/>
			<path class="st2" d="M115.7,72.4c0,0,0.6,0.2,0.4,0.8c-0.2,0.6-0.9,2.7-0.9,2.7s-0.2,0.6-0.8,0.4c-0.6-0.2-2.7-0.9-2.7-0.9
				s-0.7-0.2-0.4-0.8c0.2-0.6,0.9-2.7,0.9-2.7s0.2-0.6,0.9-0.4C113.6,71.7,115.7,72.4,115.7,72.4z"/>
			<path class="st2" d="M114.9,105.6c0,0,0.6,0.2,0.5,0.8c-0.2,0.6-0.8,2.7-0.8,2.7s-0.2,0.6-0.8,0.4c-0.6-0.2-2.7-0.8-2.7-0.8
				s-0.7-0.2-0.5-0.8c0.2-0.6,0.8-2.7,0.8-2.7s0.2-0.6,0.8-0.5C112.8,105,114.9,105.6,114.9,105.6z"/>
			<path class="st2" d="M113.7,77.2c0,0,0.6,0.2,0.4,0.8c-0.2,0.6-0.9,2.7-0.9,2.7s-0.2,0.6-0.8,0.4c-0.6-0.2-2.7-0.9-2.7-0.9
				s-0.7-0.2-0.4-0.8c0.2-0.6,0.9-2.7,0.9-2.7s0.2-0.6,0.9-0.4C111.6,76.5,113.7,77.2,113.7,77.2z"/>
			<path class="st2" d="M113.3,110.7c0,0,0.6,0.2,0.5,0.8c-0.2,0.6-0.8,2.7-0.8,2.7s-0.2,0.6-0.8,0.4c-0.6-0.2-2.7-0.8-2.7-0.8
				s-0.7-0.2-0.5-0.8c0.2-0.6,0.8-2.7,0.8-2.7s0.2-0.6,0.8-0.5C111.2,110.1,113.3,110.7,113.3,110.7z"/>
			<path class="st2" d="M111.7,82.1c0,0,0.6,0.2,0.4,0.8c-0.2,0.6-0.9,2.7-0.9,2.7s-0.2,0.6-0.8,0.4c-0.6-0.2-2.7-0.9-2.7-0.9
				s-0.7-0.2-0.4-0.8c0.2-0.6,0.9-2.7,0.9-2.7s0.2-0.6,0.9-0.4C109.6,81.4,111.7,82.1,111.7,82.1z"/>
			<path class="st2" d="M111.6,115.7c0,0,0.6,0.2,0.5,0.8c-0.2,0.6-0.8,2.7-0.8,2.7s-0.2,0.6-0.8,0.4c-0.6-0.2-2.7-0.8-2.7-0.8
				s-0.7-0.2-0.5-0.8c0.2-0.6,0.8-2.7,0.8-2.7s0.2-0.6,0.8-0.5C109.5,115.1,111.6,115.7,111.6,115.7z"/>
			<path class="st2" d="M109.8,120.8c0,0,0.6,0.2,0.5,0.8c-0.2,0.6-0.8,2.7-0.8,2.7s-0.2,0.6-0.8,0.4c-0.6-0.2-2.7-0.8-2.7-0.8
				s-0.7-0.2-0.5-0.8c0.2-0.6,0.8-2.7,0.8-2.7s0.2-0.6,0.8-0.5C107.7,120.2,109.8,120.8,109.8,120.8z"/>
			<path class="st2" d="M109.7,87.2c0,0,0.6,0.2,0.4,0.8c-0.2,0.6-0.9,2.7-0.9,2.7s-0.2,0.6-0.8,0.4c-0.6-0.2-2.7-0.9-2.7-0.9
				s-0.7-0.2-0.4-0.8c0.2-0.6,0.9-2.7,0.9-2.7s0.2-0.6,0.9-0.4C107.6,86.4,109.7,87.2,109.7,87.2z"/>
			<path class="st2" d="M108.1,125.8c0,0,0.6,0.2,0.5,0.8c-0.2,0.6-0.8,2.7-0.8,2.7s-0.2,0.6-0.8,0.4c-0.6-0.2-2.7-0.8-2.7-0.8
				s-0.7-0.2-0.5-0.8c0.2-0.6,0.8-2.7,0.8-2.7s0.2-0.6,0.8-0.5C106,125.2,108.1,125.8,108.1,125.8z"/>
			<path class="st2" d="M107.8,92.2c0,0,0.6,0.2,0.4,0.8c-0.2,0.6-0.9,2.7-0.9,2.7s-0.2,0.6-0.8,0.4c-0.6-0.2-2.7-0.9-2.7-0.9
				s-0.7-0.2-0.4-0.8c0.2-0.6,0.9-2.7,0.9-2.7s0.2-0.6,0.9-0.4C105.7,91.5,107.8,92.2,107.8,92.2z"/>
			<path class="st2" d="M106.4,130.7c0,0,0.6,0.2,0.5,0.8c-0.2,0.6-0.8,2.7-0.8,2.7s-0.2,0.6-0.8,0.4c-0.6-0.2-2.7-0.8-2.7-0.8
				s-0.7-0.2-0.5-0.8c0.2-0.6,0.8-2.7,0.8-2.7s0.2-0.6,0.8-0.5C104.3,130.1,106.4,130.7,106.4,130.7z"/>
			<path class="st2" d="M105.8,97c0,0,0.6,0.2,0.4,0.8c-0.2,0.6-0.9,2.7-0.9,2.7s-0.2,0.6-0.8,0.4c-0.6-0.2-2.7-0.9-2.7-0.9
				s-0.7-0.2-0.4-0.8c0.2-0.6,0.9-2.7,0.9-2.7s0.2-0.6,0.9-0.4C103.7,96.3,105.8,97,105.8,97z"/>
			<path class="st2" d="M104.6,135.9c0,0,0.6,0.2,0.5,0.8c-0.2,0.6-0.8,2.7-0.8,2.7s-0.2,0.6-0.8,0.4c-0.6-0.2-2.7-0.8-2.7-0.8
				s-0.7-0.2-0.5-0.8c0.2-0.6,0.8-2.7,0.8-2.7s0.2-0.6,0.8-0.5C102.5,135.3,104.6,135.9,104.6,135.9z"/>
			<path class="st2" d="M103.8,102.1c0,0,0.6,0.2,0.4,0.8c-0.2,0.6-0.9,2.7-0.9,2.7s-0.2,0.6-0.8,0.4c-0.6-0.2-2.7-0.9-2.7-0.9
				s-0.7-0.2-0.4-0.8s0.9-2.7,0.9-2.7s0.2-0.6,0.9-0.4C101.7,101.4,103.8,102.1,103.8,102.1z"/>
			<path class="st2" d="M101.8,107c0,0,0.6,0.2,0.4,0.8c-0.2,0.6-0.9,2.7-0.9,2.7s-0.2,0.6-0.8,0.4c-0.6-0.2-2.7-0.9-2.7-0.9
				s-0.7-0.2-0.4-0.8c0.2-0.6,0.9-2.7,0.9-2.7s0.2-0.6,0.9-0.4C99.7,106.2,101.8,107,101.8,107z"/>
			<path class="st2" d="M99.8,111.8c0,0,0.6,0.2,0.4,0.8c-0.2,0.6-0.9,2.7-0.9,2.7s-0.2,0.6-0.8,0.4c-0.6-0.2-2.7-0.9-2.7-0.9
				s-0.7-0.2-0.4-0.8c0.2-0.6,0.9-2.7,0.9-2.7s0.2-0.6,0.9-0.4C97.7,111.1,99.8,111.8,99.8,111.8z"/>
			<path class="st2" d="M97.8,116.9c0,0,0.6,0.2,0.4,0.8c-0.2,0.6-0.9,2.7-0.9,2.7s-0.2,0.6-0.8,0.4c-0.3-0.1-0.8-0.3-1.3-0.5
				l-1-3.8c0-0.1,0.1-0.2,0.1-0.2s0.2-0.6,0.9-0.4C95.7,116.2,97.8,116.9,97.8,116.9z"/>
			<path class="st2" d="M98.1,148c0.2,0.6-0.5,0.8-0.5,0.8s-2.1,0.5-2.8,0.7c-0.7,0.2-0.8-0.5-0.8-0.5s-0.5-2.1-0.7-2.8
				c-0.2-0.6,0.5-0.8,0.5-0.8s2.1-0.5,2.8-0.7s0.8,0.5,0.8,0.5S97.9,147.3,98.1,148z"/>
			<path class="st2" d="M96.5,142.8c0.2,0.6-0.5,0.8-0.5,0.8s-2.1,0.5-2.8,0.7c-0.7,0.2-0.8-0.5-0.8-0.5s-0.5-2.1-0.7-2.8
				c-0.2-0.6,0.5-0.8,0.5-0.8s2.1-0.5,2.8-0.7c0.6-0.2,0.8,0.5,0.8,0.5S96.3,142.1,96.5,142.8z"/>
			<path class="st2" d="M94.2,116.6l1,3.8c-0.7-0.2-1.4-0.5-1.4-0.5s-0.7-0.2-0.4-0.8C93.5,118.6,94,117.1,94.2,116.6z"/>
			<path class="st2" d="M94.9,137.8c0.2,0.6-0.5,0.8-0.5,0.8s-2.1,0.5-2.8,0.7c-0.7,0.2-0.8-0.5-0.8-0.5s-0.5-2.1-0.7-2.8
				c-0.2-0.6,0.5-0.8,0.5-0.8s2.1-0.5,2.8-0.7c0.6-0.2,0.8,0.5,0.8,0.5S94.8,137.1,94.9,137.8z"/>
			<path class="st2" d="M93.3,132.7c0.2,0.6-0.5,0.8-0.5,0.8s-2.1,0.5-2.8,0.7c-0.6,0.2-0.8-0.5-0.8-0.5s-0.5-2.1-0.7-2.8
				c-0.2-0.6,0.5-0.8,0.5-0.8s2.1-0.5,2.8-0.7c0.6-0.2,0.8,0.5,0.8,0.5S93.2,132.1,93.3,132.7z"/>
			<path class="st2" d="M91.8,127.5c0.2,0.6-0.5,0.8-0.5,0.8s-2.1,0.5-2.8,0.7c-0.6,0.2-0.8-0.5-0.8-0.5s-0.5-2.1-0.7-2.8
				c-0.2-0.6,0.5-0.8,0.5-0.8s2.1-0.5,2.8-0.7c0.6-0.2,0.8,0.5,0.8,0.5S91.6,126.9,91.8,127.5z"/>
			<path class="st2" d="M90.2,122.5c0.2,0.6-0.5,0.8-0.5,0.8s-2.1,0.5-2.8,0.7c-0.7,0.2-0.8-0.5-0.8-0.5s-0.5-2.1-0.7-2.8
				s0.5-0.8,0.5-0.8s2.1-0.5,2.8-0.7s0.8,0.5,0.8,0.5S90,121.9,90.2,122.5z"/>
			<path class="st2" d="M88.7,117.4c0.2,0.6-0.5,0.8-0.5,0.8s-2.1,0.5-2.8,0.7c-0.7,0.2-0.8-0.5-0.8-0.5s-0.5-2.1-0.7-2.8
				s0.5-0.8,0.5-0.8s2.1-0.5,2.8-0.7s0.8,0.5,0.8,0.5S88.6,116.7,88.7,117.4z"/>
			<path class="st2" d="M88.2,149.8c0.2,0.6-0.5,0.8-0.5,0.8s-2.1,0.5-2.8,0.7c-0.7,0.2-0.8-0.5-0.8-0.5s-0.5-2.1-0.7-2.8
				c-0.2-0.6,0.5-0.8,0.5-0.8s2.1-0.5,2.8-0.7s0.8,0.5,0.8,0.5S88,149.2,88.2,149.8z"/>
			<path class="st2" d="M87.2,112.2c0.2,0.6-0.5,0.8-0.5,0.8s-2.1,0.5-2.8,0.7c-0.7,0.2-0.8-0.5-0.8-0.5s-0.5-2.1-0.7-2.8
				s0.5-0.8,0.5-0.8s2.1-0.5,2.8-0.7c0.6-0.2,0.8,0.5,0.8,0.5S87,111.5,87.2,112.2z"/>
			<path class="st2" d="M86.6,144.6c0.2,0.6-0.5,0.8-0.5,0.8s-2.1,0.5-2.8,0.7c-0.7,0.2-0.8-0.5-0.8-0.5s-0.5-2.1-0.7-2.8
				c-0.2-0.6,0.5-0.8,0.5-0.8s2.1-0.5,2.8-0.7s0.8,0.5,0.8,0.5S86.4,144,86.6,144.6z"/>
			<path class="st2" d="M85.6,107.2c0.2,0.6-0.5,0.8-0.5,0.8s-2.1,0.5-2.8,0.7c-0.7,0.2-0.8-0.5-0.8-0.5s-0.5-2.1-0.7-2.8
				c-0.2-0.6,0.5-0.8,0.5-0.8s2.1-0.5,2.8-0.7c0.6-0.2,0.8,0.5,0.8,0.5S85.4,106.5,85.6,107.2z"/>
			<path class="st2" d="M85,139.6c0.2,0.6-0.5,0.8-0.5,0.8s-2.1,0.5-2.8,0.7c-0.7,0.2-0.8-0.5-0.8-0.5s-0.5-2.1-0.7-2.8
				c-0.2-0.6,0.5-0.8,0.5-0.8s2.1-0.5,2.8-0.7c0.6-0.2,0.8,0.5,0.8,0.5S84.9,139,85,139.6z"/>
			<path class="st2" d="M84,102.1c0.2,0.6-0.5,0.8-0.5,0.8s-2.1,0.5-2.8,0.7c-0.6,0.2-0.8-0.5-0.8-0.5s-0.5-2.1-0.7-2.8
				c-0.2-0.6,0.5-0.8,0.5-0.8s2.1-0.5,2.8-0.7s0.8,0.5,0.8,0.5S83.8,101.5,84,102.1z"/>
			<path class="st2" d="M83.4,134.6c0.2,0.6-0.5,0.8-0.5,0.8s-2.1,0.5-2.8,0.7c-0.6,0.2-0.8-0.5-0.8-0.5s-0.5-2.1-0.7-2.8
				c-0.2-0.6,0.5-0.8,0.5-0.8s2.1-0.5,2.8-0.7c0.6-0.2,0.8,0.5,0.8,0.5S83.3,134,83.4,134.6z"/>
			<path class="st2" d="M82.4,96.9c0.2,0.6-0.5,0.8-0.5,0.8s-2.1,0.5-2.8,0.7c-0.6,0.2-0.8-0.5-0.8-0.5s-0.5-2.1-0.7-2.8
				c-0.2-0.6,0.5-0.8,0.5-0.8s2.1-0.5,2.8-0.7c0.6-0.2,0.8,0.5,0.8,0.5S82.3,96.3,82.4,96.9z"/>
			<path class="st2" d="M81.9,129.4c0.2,0.6-0.5,0.8-0.5,0.8s-2.1,0.5-2.8,0.7c-0.6,0.2-0.8-0.5-0.8-0.5s-0.5-2.1-0.7-2.8
				c-0.2-0.6,0.5-0.8,0.5-0.8s2.1-0.5,2.8-0.7c0.6-0.2,0.8,0.5,0.8,0.5S81.7,128.8,81.9,129.4z"/>
			<path class="st2" d="M80.9,91.9c0.2,0.6-0.5,0.8-0.5,0.8s-2.1,0.5-2.8,0.7c-0.7,0.2-0.8-0.5-0.8-0.5s-0.5-2.1-0.7-2.8
				s0.5-0.8,0.5-0.8s2.1-0.5,2.8-0.7c0.6-0.2,0.8,0.5,0.8,0.5S80.7,91.3,80.9,91.9z"/>
			<path class="st2" d="M80.3,124.4c0.2,0.6-0.5,0.8-0.5,0.8s-2.1,0.5-2.8,0.7c-0.7,0.2-0.8-0.5-0.8-0.5s-0.5-2.1-0.7-2.8
				s0.5-0.8,0.5-0.8s2.1-0.5,2.8-0.7c0.6-0.2,0.8,0.5,0.8,0.5S80.1,123.8,80.3,124.4z"/>
			<path class="st2" d="M79.2,86.8c0.2,0.6-0.5,0.8-0.5,0.8s-2.1,0.5-2.8,0.7c-0.7,0.2-0.8-0.5-0.8-0.5s-0.5-2.1-0.7-2.8
				c-0.2-0.6,0.5-0.8,0.5-0.8s2.1-0.5,2.8-0.7c0.6-0.2,0.8,0.5,0.8,0.5S79.1,86.1,79.2,86.8z"/>
			<path class="st2" d="M78.9,119.2c0.2,0.6-0.5,0.8-0.5,0.8s-2.1,0.5-2.8,0.7c-0.7,0.2-0.8-0.5-0.8-0.5s-0.5-2.1-0.7-2.8
				s0.5-0.8,0.5-0.8s2.1-0.5,2.8-0.7c0.6-0.2,0.8,0.5,0.8,0.5S78.7,118.6,78.9,119.2z"/>
			<path class="st2" d="M77.6,81.6c0.2,0.6-0.5,0.8-0.5,0.8S75,82.9,74.4,83c-0.7,0.2-0.8-0.5-0.8-0.5s-0.5-2.1-0.7-2.8
				c-0.2-0.6,0.5-0.8,0.5-0.8s2.1-0.5,2.8-0.7s0.8,0.5,0.8,0.5S77.5,80.9,77.6,81.6z"/>
			<path class="st2" d="M77.3,114c0.2,0.6-0.5,0.8-0.5,0.8s-2.1,0.5-2.8,0.7c-0.7,0.2-0.8-0.5-0.8-0.5s-0.5-2.1-0.7-2.8
				s0.5-0.8,0.5-0.8s2.1-0.5,2.8-0.7c0.6-0.2,0.8,0.5,0.8,0.5S77.1,113.4,77.3,114z"/>
			<path class="st2" d="M76.1,76.6c0.2,0.6-0.5,0.8-0.5,0.8s-2.1,0.5-2.8,0.7c-0.7,0.2-0.8-0.5-0.8-0.5s-0.5-2.1-0.7-2.8
				c-0.2-0.6,0.5-0.8,0.5-0.8s2.1-0.5,2.8-0.7c0.6-0.2,0.8,0.5,0.8,0.5S75.9,75.9,76.1,76.6z"/>
			<path class="st2" d="M75.7,109c0.2,0.6-0.5,0.8-0.5,0.8s-2.1,0.5-2.8,0.7c-0.7,0.2-0.8-0.5-0.8-0.5s-0.5-2.1-0.7-2.8
				c-0.2-0.6,0.5-0.8,0.5-0.8s2.1-0.5,2.8-0.7c0.6-0.2,0.8,0.5,0.8,0.5S75.5,108.4,75.7,109z"/>
			<path class="st2" d="M74.5,71.5c0.2,0.6-0.5,0.8-0.5,0.8s-2.1,0.5-2.8,0.7c-0.6,0.2-0.8-0.5-0.8-0.5s-0.5-2.1-0.7-2.8
				c-0.2-0.6,0.5-0.8,0.5-0.8s2.1-0.5,2.8-0.7c0.6-0.2,0.8,0.5,0.8,0.5S74.3,70.9,74.5,71.5z"/>
			<path class="st2" d="M74.1,104c0.2,0.6-0.5,0.8-0.5,0.8s-2.1,0.5-2.8,0.7c-0.6,0.2-0.8-0.5-0.8-0.5s-0.5-2.1-0.7-2.8
				c-0.2-0.6,0.5-0.8,0.5-0.8s2.1-0.5,2.8-0.7s0.8,0.5,0.8,0.5S74,103.4,74.1,104z"/>
			<path class="st2" d="M72.9,66.3c0.2,0.6-0.5,0.8-0.5,0.8s-2.1,0.5-2.8,0.7c-0.6,0.2-0.8-0.5-0.8-0.5s-0.5-2.1-0.7-2.8
				c-0.2-0.6,0.5-0.8,0.5-0.8s2.1-0.5,2.8-0.7c0.6-0.2,0.8,0.5,0.8,0.5S72.8,65.7,72.9,66.3z"/>
			<path class="st2" d="M72.5,98.8c0.2,0.6-0.5,0.8-0.5,0.8s-2.1,0.5-2.8,0.7c-0.6,0.2-0.8-0.5-0.8-0.5s-0.5-2.1-0.7-2.8
				c-0.2-0.6,0.5-0.8,0.5-0.8s2.1-0.5,2.8-0.7s0.8,0.5,0.8,0.5S72.4,98.2,72.5,98.8z"/>
			<path class="st2" d="M71.3,61.3c0.2,0.6-0.5,0.8-0.5,0.8s-0.7,0.2-1.3,0.3h-2.2c0-0.1,0-0.1,0-0.1s-0.5-2.1-0.7-2.8
				c-0.2-0.6,0.5-0.8,0.5-0.8s2.1-0.5,2.8-0.7c0.6-0.2,0.8,0.5,0.8,0.5S71.2,60.7,71.3,61.3z"/>
			<path class="st2" d="M71,93.8c0.2,0.6-0.5,0.8-0.5,0.8s-2.1,0.5-2.8,0.7c-0.7,0.2-0.8-0.5-0.8-0.5s-0.5-2.1-0.7-2.8
				c-0.2-0.6,0.5-0.8,0.5-0.8s2.1-0.5,2.8-0.7s0.8,0.5,0.8,0.5S70.8,93.2,71,93.8z"/>
			<path class="st2" d="M67.3,62.5h2.2c-0.6,0.1-1.1,0.3-1.4,0.4C67.6,62.9,67.4,62.6,67.3,62.5z"/>
			<path class="st2" d="M69.3,88.6c0.2,0.6-0.5,0.8-0.5,0.8s-2.1,0.5-2.8,0.7c-0.7,0.2-0.8-0.5-0.8-0.5s-0.5-2.1-0.7-2.8
				c-0.2-0.6,0.5-0.8,0.5-0.8s2.1-0.5,2.8-0.7c0.6-0.2,0.8,0.5,0.8,0.5S69.2,88,69.3,88.6z"/>
			<path class="st2" d="M67.8,83.4c0.2,0.6-0.5,0.8-0.5,0.8s-2.1,0.5-2.8,0.7c-0.7,0.2-0.8-0.5-0.8-0.5s-0.5-2.1-0.7-2.8
				c-0.2-0.6,0.5-0.8,0.5-0.8s2.1-0.5,2.8-0.7s0.8,0.5,0.8,0.5S67.6,82.8,67.8,83.4z"/>
			<path class="st2" d="M66.2,78.4c0.2,0.6-0.5,0.8-0.5,0.8s-2.1,0.5-2.8,0.7c-0.7,0.2-0.8-0.5-0.8-0.5s-0.5-2.1-0.7-2.8
				c-0.2-0.6,0.5-0.8,0.5-0.8s2.1-0.5,2.8-0.7c0.6-0.2,0.8,0.5,0.8,0.5S66,77.8,66.2,78.4z"/>
			<path class="st2" d="M64.6,73.4c0.2,0.6-0.5,0.8-0.5,0.8s-2.1,0.5-2.8,0.7c-0.6,0.2-0.8-0.5-0.8-0.5s-0.5-2.1-0.7-2.8
				c-0.2-0.6,0.5-0.8,0.5-0.8s2.1-0.5,2.8-0.7c0.6-0.2,0.8,0.5,0.8,0.5S64.4,72.8,64.6,73.4z"/>
			<path class="st2" d="M63,68.2c0.2,0.6-0.5,0.8-0.5,0.8s-2.1,0.5-2.8,0.7c-0.6,0.2-0.8-0.5-0.8-0.5s-0.5-2.1-0.7-2.8
				c-0.2-0.6,0.5-0.8,0.5-0.8s2.1-0.5,2.8-0.7c0.6-0.2,0.8,0.5,0.8,0.5S62.9,67.6,63,68.2z"/>
			<path class="st2" d="M61.4,63.2c0.2,0.6-0.5,0.8-0.5,0.8s-2.1,0.5-2.8,0.7c-0.7,0.2-0.8-0.5-0.8-0.5s-0.2-0.9-0.4-1.7h4.3
				C61.3,62.8,61.4,63,61.4,63.2z"/>
			<path class="st2" d="M61.3,62.5h-4.3c-0.1-0.4-0.2-0.8-0.3-1c-0.2-0.6,0.5-0.8,0.5-0.8s2.1-0.5,2.8-0.7s0.8,0.5,0.8,0.5
				S61,61.6,61.3,62.5z"/>
		</g>
		<g>
		</g>
	</g>
</g>
</svg>
