<?xml version="1.0" encoding="utf-8"?>
<!-- Generator: Adobe Illustrator 21.0.0, SVG Export Plug-In . SVG Version: 6.00 Build 0)  -->
<svg version="1.1" xmlns="http://www.w3.org/2000/svg" xmlns:xlink="http://www.w3.org/1999/xlink" x="0px" y="0px"
	 viewBox="0 0 800 200" style="enable-background:new 0 0 800 200;" xml:space="preserve">
<style type="text/css">
	.st0{fill:none;stroke:#FF0000;stroke-miterlimit:10;}
	.st1{fill:#FFFFFF;}
</style>
<g id="Layer_1">
	<path class="st0" d="M267.5,69.5"/>
	<g>
		<path class="st1" d="M277.8,70.8l8.4,32.5c1.8,7.1,3.6,13.7,4.7,20.3h0.4c1.5-6.5,3.6-13.3,5.7-20.2l10.4-32.6h9.8l9.9,31.9
			c2.4,7.7,4.2,14.4,5.7,20.8h0.4c1.1-6.5,2.8-13.2,4.9-20.7l9.1-32.1h11.5l-20.6,63.9h-10.6l-9.8-30.5c-2.2-7.1-4.1-13.5-5.7-21
			h-0.3c-1.6,7.7-3.6,14.2-5.8,21.1l-10.3,30.3h-10.6l-19.3-63.9H277.8z"/>
		<path class="st1" d="M383.2,52.9c0.1,4-2.8,7.1-7.4,7.1c-4.1,0-7-3.2-7-7.1c0-4.1,3-7.3,7.3-7.3C380.4,45.6,383.2,48.8,383.2,52.9
			z M370.3,134.7V70.8h11.6v63.9H370.3z"/>
		<path class="st1" d="M412.6,100.1h0.3c1.6-2.2,3.8-5,5.7-7.3l18.7-22h14l-24.7,26.3l28.1,37.6h-14.1l-22-30.6l-5.9,6.6v24h-11.5
			V41h11.5V100.1z"/>
		<path class="st1" d="M478.2,52.9c0.1,4-2.8,7.1-7.4,7.1c-4.1,0-7-3.2-7-7.1c0-4.1,3-7.3,7.3-7.3C475.4,45.6,478.2,48.8,478.2,52.9
			z M465.3,134.7V70.8h11.6v63.9H465.3z"/>
		<path class="st1" d="M510.1,52.5v18.3h16.6v8.8h-16.6v34.4c0,7.9,2.2,12.4,8.7,12.4c3,0,5.3-0.4,6.7-0.8l0.5,8.7
			c-2.2,0.9-5.8,1.6-10.3,1.6c-5.4,0-9.8-1.7-12.5-4.9c-3.3-3.4-4.5-9.1-4.5-16.6V79.7h-9.9v-8.8h9.9V55.5L510.1,52.5z"/>
		<path class="st1" d="M545.5,104.9c0.3,15.7,10.3,22.2,21.9,22.2c8.3,0,13.3-1.5,17.7-3.3l2,8.3c-4.1,1.8-11.1,4-21.2,4
			c-19.7,0-31.4-12.9-31.4-32.2s11.3-34.4,29.9-34.4c20.8,0,26.4,18.3,26.4,30.1c0,2.4-0.3,4.2-0.4,5.4H545.5z M579.5,96.5
			c0.1-7.4-3-18.9-16.1-18.9c-11.7,0-16.9,10.8-17.8,18.9H579.5z"/>
		<path class="st1" d="M605.1,90.7c0-7.5-0.1-14-0.5-19.9h10.2l0.4,12.5h0.5c2.9-8.6,9.9-14,17.7-14c1.3,0,2.2,0.1,3.3,0.4v11
			c-1.2-0.3-2.4-0.4-4-0.4c-8.2,0-14,6.2-15.6,14.9c-0.3,1.6-0.5,3.4-0.5,5.4v34h-11.5V90.7z"/>
		<path class="st1" d="M648.8,88.1c0-6.6-0.1-12-0.5-17.3h10.2l0.5,10.3h0.4c3.6-6.1,9.5-11.7,20.1-11.7c8.7,0,15.3,5.3,18.1,12.8
			h0.3c2-3.6,4.5-6.3,7.1-8.3c3.8-2.9,8-4.5,14.1-4.5c8.4,0,21,5.5,21,27.7v37.6h-11.3V98.5c0-12.3-4.5-19.7-13.9-19.7
			c-6.6,0-11.7,4.9-13.7,10.6c-0.5,1.6-0.9,3.7-0.9,5.8v39.5h-11.3V96.4c0-10.2-4.5-17.5-13.3-17.5c-7.3,0-12.5,5.8-14.4,11.6
			c-0.7,1.7-0.9,3.7-0.9,5.7v38.5h-11.3V88.1z"/>
		<path class="st1" d="M756,127.8c0-4.9,3.3-8.3,7.9-8.3c4.6,0,7.8,3.4,7.8,8.3c0,4.7-3,8.3-7.9,8.3
			C759.2,136.1,756,132.6,756,127.8z"/>
	</g>
</g>
<g id="Layer_2">
	<g id="XMLID_1_">
		<g>
		</g>
		<g>
		</g>
	</g>
</g>
</svg>
